<svg width="166" height="49" viewBox="0 0 166 49" fill="none" xmlns="http://www.w3.org/2000/svg">
<g opacity="0.9">
<path d="M22 3.84473C33.3218 3.84473 42.5 13.0229 42.5 24.3447C42.5 35.6666 33.3218 44.8447 22 44.8447C10.6782 44.8447 1.5 35.6666 1.5 24.3447C1.5 13.0229 10.6782 3.84473 22 3.84473Z" stroke="white" stroke-width="3"/>
<path d="M36.4955 9.84924C38.5069 11.8606 39.1308 15.2577 38.0471 19.4718C36.9731 23.6481 34.2708 28.3374 30.1315 32.4767C25.9923 36.6159 21.303 39.3183 17.1267 40.3923C12.9126 41.4759 9.51553 40.852 7.50412 38.8406C5.49271 36.8292 4.86887 33.4321 5.95249 29.218C7.02649 25.0418 9.72882 20.3525 13.8681 16.2132C18.0073 12.0739 22.6966 9.37161 26.8729 8.29761C31.087 7.21399 34.4841 7.83783 36.4955 9.84924Z" stroke="white" stroke-width="3"/>
<path d="M7.50402 9.84923C9.51543 7.83782 12.9125 7.21398 17.1266 8.2976C21.3029 9.3716 25.9922 12.0739 30.1314 16.2132C34.2707 20.3524 36.973 25.0418 38.047 29.218C39.1307 33.4321 38.5068 36.8292 36.4954 38.8406C34.484 40.852 31.0869 41.4759 26.8728 40.3922C22.6966 39.3182 18.0072 36.6159 13.868 32.4766C9.72873 28.3374 7.02639 23.6481 5.95239 19.4718C4.86877 15.2577 5.49262 11.8606 7.50402 9.84923Z" stroke="white" stroke-width="3"/>
<path d="M62.8502 34.3348C67.5602 34.3348 70.7402 31.8748 70.7402 27.9448C70.7402 19.6348 59.7002 23.1748 59.7002 18.7948C59.7002 17.5648 60.8102 16.7248 62.5802 16.7248C64.5902 16.7248 65.8502 17.8048 66.0002 19.4548H70.2902C70.1702 15.4648 67.1102 12.8548 62.5802 12.8548C58.3202 12.8548 55.3202 15.3148 55.3202 18.7948C55.3202 27.0448 66.2102 23.8948 66.2102 28.0048C66.2102 29.5948 64.8602 30.4348 62.8502 30.4348C60.6302 30.4348 59.2202 29.0848 59.0402 26.9548H54.7202C54.9002 31.4248 58.0802 34.3348 62.8502 34.3348Z" fill="white"/>
<path d="M71.7605 40.2148H75.9305V32.7448C76.7405 33.7648 78.2105 34.3348 79.9205 34.3348C84.2705 34.3348 87.2105 31.2448 87.2105 26.5348C87.2105 21.8248 84.5105 18.7348 80.2805 18.7348C78.3305 18.7348 76.8305 19.4548 75.9305 20.6248V18.9748H71.7605V40.2148ZM79.4105 30.7348C77.1605 30.7348 75.6905 29.0548 75.6905 26.5348C75.6905 23.9848 77.1605 22.3048 79.4105 22.3048C81.6005 22.3048 83.1005 23.9848 83.1005 26.5348C83.1005 29.0548 81.6005 30.7348 79.4105 30.7348Z" fill="white"/>
<path d="M88.2194 34.0948H92.3894V25.8148C92.3894 23.8648 93.6794 22.4548 95.5094 22.4548C97.2494 22.4548 98.4494 23.7748 98.4494 25.6048V34.0948H102.619V24.6748C102.619 21.1948 100.399 18.7348 97.0094 18.7348C94.9094 18.7348 93.2594 19.6048 92.3894 21.0748V12.4048H88.2194V34.0948Z" fill="white"/>
<path d="M114.285 28.9648C113.955 30.2548 112.845 30.9148 111.165 30.9148C109.065 30.9148 107.715 29.5948 107.415 27.4648H118.275C118.305 27.1348 118.335 26.6848 118.335 26.1148C118.335 22.6648 116.205 18.7348 110.865 18.7348C105.735 18.7348 103.395 22.6648 103.395 26.5048C103.395 30.3148 106.035 34.3348 111.165 34.3348C114.885 34.3348 117.765 32.2348 118.365 28.9648H114.285ZM110.865 21.7948C112.875 21.7948 114.045 23.1448 114.165 24.8248H107.475C107.835 22.7248 108.975 21.7948 110.865 21.7948Z" fill="white"/>
<path d="M129.271 22.4548V18.9748H127.12C125.29 18.9748 124.15 19.6048 123.34 21.4948V18.9748H119.14V34.0948H123.34V26.7448C123.34 24.1648 124.27 22.4548 126.34 22.4548H129.271Z" fill="white"/>
<path d="M143.671 18.9748H139.471V27.2548C139.471 29.1748 138.181 30.6148 136.351 30.6148C134.641 30.6148 133.441 29.2948 133.441 27.4648V18.9748H129.271V28.3948C129.271 31.8448 131.491 34.3348 134.881 34.3348C136.951 34.3348 138.631 33.4348 139.471 31.9948V34.0948H143.671V18.9748Z" fill="white"/>
<path d="M145.471 34.0948H149.641V12.4048H145.471V34.0948Z" fill="white"/>
<path d="M161.546 28.9648C161.216 30.2548 160.106 30.9148 158.426 30.9148C156.326 30.9148 154.976 29.5948 154.676 27.4648H165.536C165.566 27.1348 165.596 26.6848 165.596 26.1148C165.596 22.6648 163.466 18.7348 158.126 18.7348C152.996 18.7348 150.656 22.6648 150.656 26.5048C150.656 30.3148 153.296 34.3348 158.426 34.3348C162.146 34.3348 165.026 32.2348 165.626 28.9648H161.546ZM158.126 21.7948C160.136 21.7948 161.306 23.1448 161.426 24.8248H154.736C155.096 22.7248 156.236 21.7948 158.126 21.7948Z" fill="white"/>
</g>
</svg>
