<svg width="22" height="22" viewBox="0 0 22 22" fill="none" xmlns="http://www.w3.org/2000/svg">
<path fill-rule="evenodd" clip-rule="evenodd" d="M5.88742 2.41719C4.67707 2.57989 3.95424 2.88842 3.42133 3.42133C2.88846 3.9542 2.5799 4.67725 2.41719 5.88778C2.25159 7.11983 2.25 8.73981 2.25 11C2.25 13.2607 2.25159 14.8807 2.41719 16.1126C2.57989 17.3229 2.88842 18.0458 3.42133 18.5787C3.9542 19.1115 4.67725 19.4201 5.88778 19.5828C7.11983 19.7484 8.73981 19.75 11 19.75C13.2607 19.75 14.8807 19.7484 16.1126 19.5828C17.3229 19.4201 18.0458 19.1116 18.5787 18.5787C19.1115 18.0458 19.4201 17.3228 19.5828 16.1122C19.7484 14.8802 19.75 13.2602 19.75 11C19.75 8.7393 19.7484 7.11934 19.5828 5.88742C19.4201 4.67707 19.1116 3.95424 18.5787 3.42133C18.0458 2.88846 17.3228 2.5799 16.1122 2.41719C14.8802 2.25159 13.2602 2.25 11 2.25C8.7393 2.25 7.11934 2.25159 5.88742 2.41719ZM10.9428 0.75H11.0571C13.2477 0.749987 14.9685 0.749976 16.312 0.93056C17.6887 1.1156 18.7812 1.50254 19.6393 2.36067C20.4974 3.21876 20.8844 4.31093 21.0694 5.68758C21.25 7.031 21.25 8.75179 21.25 10.9428V11.0571C21.25 13.2477 21.25 14.9685 21.0694 16.312C20.8844 17.6887 20.4975 18.7812 19.6393 19.6393C18.7812 20.4974 17.6891 20.8844 16.3124 21.0694C14.969 21.25 13.2482 21.25 11.0572 21.25H10.9429C8.75231 21.25 7.03151 21.25 5.68797 21.0694C4.31126 20.8844 3.2188 20.4975 2.36067 19.6393C1.50258 18.7812 1.11561 17.6891 0.930561 16.3124C0.749976 14.969 0.749987 13.2482 0.75 11.0572V10.9429C0.749987 8.75229 0.749976 7.0315 0.93056 5.68797C1.1156 4.31126 1.50254 3.2188 2.36067 2.36067C3.21876 1.50258 4.31093 1.11561 5.68758 0.930561C7.031 0.749976 8.75179 0.749987 10.9428 0.75Z" fill="black"/>
<path fill-rule="evenodd" clip-rule="evenodd" d="M15.748 5.5C15.748 5.08579 16.0838 4.75 16.498 4.75H16.508C16.9222 4.75 17.258 5.08579 17.258 5.5C17.258 5.91421 16.9222 6.25 16.508 6.25H16.498C16.0838 6.25 15.748 5.91421 15.748 5.5ZM11 7.25C10.0054 7.25 9.05161 7.64509 8.34835 8.34835C7.64509 9.05161 7.25 10.0054 7.25 11C7.25 11.9946 7.64509 12.9484 8.34835 13.6517C9.05161 14.3549 10.0054 14.75 11 14.75C11.9946 14.75 12.9484 14.3549 13.6516 13.6517C14.3549 12.9484 14.75 11.9946 14.75 11C14.75 10.0054 14.3549 9.05161 13.6516 8.34835C12.9484 7.64509 11.9946 7.25 11 7.25ZM7.28769 7.28769C8.27226 6.30312 9.60761 5.75 11 5.75C12.3924 5.75 13.7277 6.30312 14.7123 7.28769C15.6969 8.27226 16.25 9.60761 16.25 11C16.25 12.3924 15.6969 13.7277 14.7123 14.7123C13.7277 15.6969 12.3924 16.25 11 16.25C9.60761 16.25 8.27226 15.6969 7.28769 14.7123C6.30312 13.7277 5.75 12.3924 5.75 11C5.75 9.60761 6.30312 8.27226 7.28769 7.28769Z" fill="black"/>
</svg>
