<svg width="20" height="20" viewBox="0 0 20 20" fill="none" xmlns="http://www.w3.org/2000/svg">
<path fill-rule="evenodd" clip-rule="evenodd" d="M0.0999999 19.331C0.0811567 19.3988 0.0805292 19.4704 0.0981808 19.5385C0.115832 19.6066 0.151138 19.6689 0.200536 19.719C0.249933 19.7691 0.311674 19.8053 0.379527 19.8239C0.447381 19.8425 0.518946 19.8429 0.587 19.825L5.194 18.621C6.65568 19.4128 8.29168 19.8276 9.954 19.828H9.958C15.444 19.828 19.916 15.382 19.916 9.91605C19.9194 8.61259 19.6635 7.32149 19.1632 6.11785C18.6629 4.91422 17.9283 3.8221 17.002 2.90505C16.0773 1.98046 14.9789 1.24782 13.77 0.749271C12.5612 0.25072 11.2656 -0.00390357 9.958 4.52349e-05C4.472 4.52349e-05 0 4.44604 0 9.91105C0 11.65 0.458 13.358 1.33 14.865L0.0999999 19.331ZM2.777 15.263C2.82987 15.0711 2.84402 14.8706 2.81861 14.6732C2.7932 14.4757 2.72874 14.2853 2.629 14.113C1.89014 12.8358 1.50075 11.3866 1.5 9.91105C1.5 5.28104 5.293 1.50005 9.958 1.50005C12.228 1.50005 14.346 2.37705 15.944 3.96805C16.7302 4.74575 17.3538 5.67223 17.7782 6.69344C18.2026 7.71465 18.4194 8.81016 18.416 9.91605C18.416 14.546 14.623 18.328 9.958 18.328H9.953C8.5407 18.3273 7.15083 17.9747 5.909 17.302C5.57429 17.1208 5.18321 17.0737 4.815 17.17L2.053 17.891L2.777 15.263Z" fill="black"/>
<path d="M7.083 5.005C7.266 5.01 7.469 5.02 7.662 5.448C7.79 5.733 8.005 6.258 8.181 6.686C8.318 7.019 8.43 7.293 8.458 7.349C8.522 7.477 8.562 7.624 8.478 7.797L8.45 7.855C8.39311 7.98958 8.3155 8.11442 8.22 8.225L8.077 8.395C7.992 8.499 7.907 8.601 7.835 8.673C7.706 8.801 7.573 8.939 7.721 9.195C7.869 9.451 8.389 10.293 9.156 10.972C9.71698 11.478 10.3607 11.8839 11.059 12.172C11.129 12.202 11.1857 12.2273 11.229 12.248C11.486 12.376 11.639 12.356 11.787 12.184C11.936 12.011 12.43 11.435 12.604 11.179C12.772 10.923 12.944 10.963 13.182 11.051C13.42 11.14 14.686 11.761 14.943 11.888L15.086 11.958C15.265 12.043 15.386 12.102 15.438 12.188C15.502 12.297 15.502 12.808 15.29 13.41C15.072 14.01 14.023 14.586 13.548 14.63L13.413 14.646C12.977 14.698 12.425 14.766 10.457 13.991C8.031 13.037 6.43 10.671 6.107 10.192L6.054 10.116L6.048 10.108C5.901 9.911 5 8.706 5 7.462C5 6.272 5.587 5.652 5.854 5.37L5.901 5.32C5.98742 5.22237 6.09302 5.14358 6.21121 5.08853C6.3294 5.03347 6.45766 5.00334 6.588 5C6.761 5 6.935 5 7.083 5.005Z" fill="black"/>
</svg>
