<svg width="258" height="238" viewBox="0 0 258 238" fill="none" xmlns="http://www.w3.org/2000/svg">
<path d="M229.685 16.8739C233.855 16.8739 237.855 18.5305 240.804 21.4794C243.753 24.4283 245.409 28.4279 245.409 32.5982V181.732C245.409 185.902 243.753 189.901 240.804 192.85C237.855 195.799 233.855 197.456 229.685 197.456H36.1982C32.0278 197.456 28.0282 195.799 25.0793 192.85C22.1305 189.901 20.4738 185.902 20.4738 181.732V32.5982C20.4738 28.4279 22.1305 24.4283 25.0793 21.4794C28.0282 18.5305 32.0278 16.8739 36.1982 16.8739H229.685ZM229.685 15.4658H36.1982C31.6558 15.4705 27.3008 17.277 24.0888 20.4889C20.8769 23.7009 19.0704 28.0559 19.0657 32.5982V181.732C19.0704 186.274 20.8769 190.629 24.0888 193.841C27.3008 197.053 31.6558 198.859 36.1982 198.864H229.685C234.227 198.859 238.582 197.053 241.794 193.841C245.006 190.629 246.813 186.274 246.817 181.732V32.5982C246.813 28.0559 245.006 23.7009 241.794 20.4889C238.582 17.277 234.227 15.4705 229.685 15.4658Z" fill="white"/>
<path d="M229.685 16.874H36.1982C27.5138 16.874 20.4738 23.9141 20.4738 32.5984V181.732C20.4738 190.416 27.5138 197.456 36.1982 197.456H229.685C238.369 197.456 245.409 190.416 245.409 181.732V32.5984C245.409 23.9141 238.369 16.874 229.685 16.874Z" fill="#F5EBDD"/>
<path d="M186.423 27.6458C186.423 27.5015 186.423 27.2938 186.423 27.0791L186.592 26.9524L186.426 26.9172C186.426 23.8899 186.169 14.8995 183.23 8.04932C180.618 1.96303 177.013 -0.849536 174.511 0.2241C172.008 1.29774 171.561 5.85628 174.159 11.932C175.609 15.3184 177.893 18.5886 180.094 21.285C175.662 17.0855 169.611 11.8792 164.147 9.01383C156.755 5.14171 151.007 5.25786 149.412 8.2922C147.818 11.3265 150.996 16.1315 158.381 20.0072C163.186 22.5311 169.748 24.4003 175.324 25.671C172.335 25.5682 169.344 25.8211 166.414 26.4243C159.951 27.8746 156.53 30.9055 157.125 33.5596C157.72 36.2138 162.109 37.4916 168.572 36.0413C175.771 34.4256 183.128 29.4587 185.659 27.6317L186.106 27.6986C186.289 27.8711 186.398 27.9662 186.398 27.9662C186.398 27.9662 186.398 27.8852 186.398 27.7409H186.504L186.423 27.6458Z" fill="#3EC1F3"/>
<path d="M257.494 59.6535L257.385 59.5479V59.7661L257.494 59.6535Z" fill="#3EC1F3"/>
<path d="M249.056 68.1795L248.968 51.216L240.309 42.6445L240.481 76.8389L249.056 68.1795Z" fill="#3EC1F3"/>
<path d="M189.235 21.4993L189.524 78.5569L198.183 87.1284L197.807 12.8398L189.235 21.4993Z" fill="#3EC1F3"/>
<path d="M160.853 50.1743L181.107 70.2249L180.903 29.916L160.853 50.1743Z" fill="#3EC1F3"/>
<path d="M232.153 85.2523L231.896 34.3162L223.233 25.7412L223.578 93.9153L232.153 85.2523Z" fill="#3EC1F3"/>
<path d="M214.82 17.4128L206.16 8.84131L206.597 95.4608L214.401 103.184L215.249 102.329L214.82 17.4128Z" fill="#3EC1F3"/>
<path d="M180.903 29.9161L181.107 70.225L189.524 78.5571L189.235 21.4995L180.903 29.9161Z" fill="#4756DF"/>
<path d="M203.942 6.64453L197.807 12.8399L198.183 87.1285L206.597 95.4606L206.16 8.84108L203.942 6.64453Z" fill="#4756DF"/>
<path d="M223.578 93.9153L223.233 25.7412L214.819 17.4126L215.249 102.328L223.578 93.9153Z" fill="#4756DF"/>
<path d="M240.481 76.8389L240.309 42.6445L231.896 34.3159L232.153 85.252L240.481 76.8389Z" fill="#4756DF"/>
<path d="M257.385 59.7662V59.5479L248.968 51.2158L249.056 68.1793L257.385 59.7662Z" fill="#4756DF"/>
<path d="M217.301 20.0488L174.289 63.4977" stroke="black" stroke-width="4" stroke-linejoin="round"/>
<path d="M206.171 4.39325L158.62 52.4277L171.536 65.2137L219.087 17.1793L206.171 4.39325Z" fill="#4756DF"/>
<path d="M193.312 81.9958C193.312 81.9958 197.888 66.8593 195.072 64.3952C191.671 61.4207 185.919 71.0834 181.283 82.6998C176.408 94.9041 162.275 129.517 161.571 131.981C161.571 131.981 137.49 118.816 126.722 114.029C117.217 109.805 105.64 108.27 105.64 108.27L104.168 99.431C104.168 99.431 111.043 101.895 116.936 98.4488C122.828 95.0026 124.303 88.6242 122.339 78.803C121.174 72.9843 121.216 65.7786 120.227 59.3544C116.305 60.0162 110.561 58.668 110.561 58.668C102.7 67.507 94.3681 69.4712 94.3681 69.4712C88.9647 63.5785 79.1401 63.5785 77.6687 71.9353C76.0389 81.1756 87.4898 83.7207 87.4898 83.7207C87.4898 83.7207 89.8201 97.1323 84.892 110.509C78.0453 129.095 50.4441 134.027 39.1304 125.997C18.7138 140.43 36.7755 184.28 53.9149 204.848C67.9954 221.744 117.981 212.944 117.981 212.944C117.981 212.944 123.613 217.168 130.301 218.576C142.27 242.161 147.198 235.473 147.198 235.473C147.198 235.473 151.422 240.049 154.59 235.121C160.927 235.473 160.574 231.601 154.942 218.224C161.279 225.969 167.481 225.993 167.615 223.857C167.967 218.224 149.31 198.512 137.694 193.584C128.967 189.88 124.669 188.655 124.669 188.655L122.909 160.142C122.909 160.142 160.265 180.658 177.823 171.055C200.352 158.734 209.504 98.1883 209.504 98.1883L193.312 81.9958Z" fill="#EAA58B"/>
<path d="M84.892 110.509C89.8202 97.1326 87.4687 83.7139 87.4687 83.7139C87.4687 83.7139 76.0178 81.1688 77.6476 71.9285C79.119 63.5788 88.9436 63.5788 94.347 69.4644C94.347 69.4644 102.693 67.5002 110.54 58.6612C110.54 58.6612 116.284 60.0094 120.206 59.3476C119.519 54.9228 118.344 50.8571 115.939 47.8544C110.047 40.4903 93.8401 35.5763 81.0727 44.9081C68.3052 54.2399 69.2838 69.4644 69.7766 75.3571C69.7766 75.3571 47.6949 69.9502 35.9483 86.5652C21.5158 106.982 39.1164 125.99 39.1164 125.99C50.4441 134.027 78.0454 129.095 84.892 110.509Z" fill="#30242A"/>
<path d="M123.525 170.129L122.909 160.143H122.941L119.995 111.509C116.744 110.504 113.442 109.673 110.103 109.02L108.477 142.542H81.0199L70.5897 125.593C66.8669 127.43 62.8797 128.673 58.7727 129.278L74.4584 168.154L80.3158 182.671C80.3158 182.671 93.6923 183.375 105.661 185.136C117.629 186.896 124.669 188.656 124.669 188.656L123.525 170.129Z" fill="#FF7235"/>
<path d="M193.836 82.8687C193.547 83.7874 193.252 84.6815 192.96 85.5158C192.96 85.5158 201.936 95.9001 196.304 109.277" stroke="#BB7259" stroke-width="4" stroke-miterlimit="10" stroke-linecap="round"/>
<path d="M160.747 131.668L157.054 141.134" stroke="#BB7259" stroke-width="4" stroke-miterlimit="10" stroke-linecap="round"/>
<path d="M156.35 219.865C154.861 216.489 153.02 212.539 151.394 209.656" stroke="#BB7259" stroke-width="4" stroke-miterlimit="10" stroke-linecap="round"/>
<path d="M144.787 213.166C149.011 220.604 152.323 228.933 154.4 234.783" stroke="#BB7259" stroke-width="4" stroke-miterlimit="10" stroke-linecap="round"/>
<path d="M138.218 217.334C141.386 223.149 144.47 229.925 146.758 235.251" stroke="#BB7259" stroke-width="4" stroke-miterlimit="10" stroke-linecap="round"/>
<path d="M124.141 174.399L77.3237 174.047" stroke="#724342" stroke-width="4" stroke-miterlimit="10" stroke-linecap="round"/>
<path d="M63.1306 196.628C60.846 195.853 58.3992 195.684 56.0297 196.138C53.6602 196.592 51.4493 197.654 49.6133 199.219C51.039 201.236 52.4787 203.127 53.9149 204.851C57.8082 209.523 64.4436 212.244 72.0083 213.698C73.9268 206.524 70.1075 199.029 63.1306 196.628Z" fill="#CA7358"/>
<path d="M177.823 171.055C180.882 169.383 183.691 166.831 186.271 163.642C184.601 161.13 182.151 159.239 179.298 158.26C171.994 155.75 163.993 159.763 161.426 167.222C160.758 169.167 160.509 171.232 160.698 173.28C167.087 174.033 173.155 173.607 177.823 171.055Z" fill="#CA7358"/>
<path d="M58.7692 129.278C51.1869 130.408 43.7805 129.299 39.1305 125.998C24.2932 136.488 29.7775 162.508 40.4611 183.844L74.4584 168.154L58.7692 129.278Z" fill="#FFBE21"/>
<path d="M84.892 110.509C82.3504 117.405 76.9506 122.421 70.5897 125.593L81.0198 142.542H108.477L110.103 109.038C107.4 108.506 105.64 108.27 105.64 108.27L104.957 104.173H86.7295C86.2633 106.325 85.6493 108.442 84.892 110.509Z" fill="#FFBE21"/>
<path d="M126.718 114.029C124.526 113.069 122.281 112.234 119.995 111.526L122.941 160.16C127.617 162.636 132.425 164.856 137.342 166.81L151.774 126.702C143.861 122.477 133.016 116.845 126.718 114.029Z" fill="#FFBE21"/>
<path d="M34.1935 143.97C43.6219 138.526 47.4323 127.474 42.7043 119.285C37.9762 111.096 26.5001 108.87 17.0717 114.314C7.64325 119.757 3.83286 130.809 8.56093 138.998C13.289 147.187 24.7651 149.413 34.1935 143.97Z" fill="#30242A"/>
<path d="M30.5061 109.98C30.5061 109.98 32.9702 124.765 44.9386 129.341" stroke="black" stroke-width="4" stroke-linecap="round" stroke-linejoin="round"/>
<path d="M80.1398 182.144L72.0435 181.792" stroke="#BB7259" stroke-width="4" stroke-miterlimit="10" stroke-linecap="round"/>
<path d="M104.045 100.255C101.918 99.5249 99.854 98.6219 97.8741 97.5552" stroke="#BB7259" stroke-width="4" stroke-miterlimit="10" stroke-linecap="round"/>
<path d="M69.2415 75.2622C69.509 77.9481 69.8716 81.2922 70.2236 83.9323" stroke="black" stroke-width="4" stroke-linecap="round" stroke-linejoin="round"/>
<path d="M102.302 174.019C102.302 174.019 94.1463 162.476 97.934 160.959C100.993 159.734 101.866 168.714 102.302 174.019Z" stroke="#724342" stroke-width="4" stroke-linecap="round" stroke-linejoin="round"/>
<path d="M102.559 174.223C102.559 174.223 106.569 164.965 109.086 166.447C111.117 167.644 105.759 171.805 102.559 174.223Z" stroke="#724342" stroke-width="4" stroke-linecap="round" stroke-linejoin="round"/>
<path d="M106.442 108.517L107.069 112.269" stroke="#BB7259" stroke-width="4" stroke-miterlimit="10" stroke-linecap="round"/>
<path d="M88.919 75.8182L84.5364 73.3823" stroke="#BB7259" stroke-width="4" stroke-miterlimit="10" stroke-linecap="round"/>
<path d="M109.839 84.0552C110.089 88.6736 114.834 89.0573 115.996 85.8152L109.839 84.0552Z" stroke="#BB7259" stroke-width="4" stroke-linecap="round" stroke-linejoin="round"/>
<path d="M107.005 75.9412C107.812 75.9412 108.466 75.2872 108.466 74.4804C108.466 73.6736 107.812 73.0195 107.005 73.0195C106.199 73.0195 105.544 73.6736 105.544 74.4804C105.544 75.2872 106.199 75.9412 107.005 75.9412Z" fill="#724342"/>
<path d="M117.868 73.3011C118.675 73.3011 119.329 72.6471 119.329 71.8403C119.329 71.0334 118.675 70.3794 117.868 70.3794C117.062 70.3794 116.408 71.0334 116.408 71.8403C116.408 72.6471 117.062 73.3011 117.868 73.3011Z" fill="#724342"/>
<path d="M114.13 76.2656C114.482 77.1985 114.813 78.2228 114.707 78.6065C114.558 79.067 114.256 79.463 113.852 79.7294" stroke="#BB7259" stroke-width="4" stroke-miterlimit="10" stroke-linecap="round"/>
<path d="M101.215 37.1919L103.077 39.2371L104.309 40.5959C105.094 43.3416 99.3808 47.7171 91.4394 50.4276C83.498 53.138 76.3029 53.1627 75.2468 50.5085L75.3947 48.678L75.62 45.9218C78.6015 46.6258 83.7761 46.0591 89.3132 44.1617C94.8504 42.2644 99.2927 39.5856 101.215 37.1919Z" fill="#FFB494"/>
<path d="M87.1659 37.9028C91.3197 36.4947 94.8609 34.615 97.1842 32.7563L101.215 37.1917C99.2928 39.5854 94.8433 42.2818 89.3027 44.1721C83.762 46.0624 78.5909 46.6362 75.6094 45.9321L76.0917 39.9479C79.0662 40.0007 83.0122 39.3178 87.1659 37.9028Z" fill="#FF7235"/>
<path d="M92.8685 28.0117L97.1842 32.7568C94.8609 34.6155 91.3197 36.4882 87.1659 37.9032C83.0122 39.3183 79.0697 40.0153 76.0916 39.952L76.6056 33.5559C82.3537 32.8615 87.8932 30.973 92.8685 28.0117Z" fill="#FFB494"/>
<path d="M82.889 25.3641C84.768 24.7285 86.5996 23.9603 88.3699 23.0654L92.8686 28.0112C87.8932 30.9725 82.3538 32.861 76.6056 33.5554L77.1477 26.8953C79.0949 26.5197 81.0134 26.0081 82.889 25.3641Z" fill="#FF7235"/>
<path d="M77.1477 26.8959L78.3481 12.041L88.3734 23.066C86.6031 23.9609 84.7716 24.7291 82.8925 25.3647C81.0158 26.0088 79.0961 26.5205 77.1477 26.8959Z" fill="#FFB494"/>
<path d="M77.4997 14.9836C80.4936 14.9836 82.9207 12.5565 82.9207 9.56259C82.9207 6.56867 80.4936 4.1416 77.4997 4.1416C74.5058 4.1416 72.0787 6.56867 72.0787 9.56259C72.0787 12.5565 74.5058 14.9836 77.4997 14.9836Z" fill="#FF7235"/>
<path d="M86.124 89.7397C88.5541 89.7397 90.5241 87.7697 90.5241 85.3396C90.5241 82.9095 88.5541 80.9395 86.124 80.9395C83.6939 80.9395 81.7238 82.9095 81.7238 85.3396C81.7238 87.7697 83.6939 89.7397 86.124 89.7397Z" fill="#F4E6D8"/>
</svg>
